<svg width="24" height="24" viewBox="0 0 24 24" fill="none" xmlns="http://www.w3.org/2000/svg">
<path d="M7.02375 12.8555H2.87691C2.66217 12.8555 2.48813 13.0296 2.48813 13.2443V17.3911C2.48813 17.6058 2.66213 17.7799 2.87691 17.7799H7.02375C8.38139 17.7799 9.48595 16.6754 9.48595 15.3177C9.48595 13.9601 8.38139 12.8555 7.02375 12.8555ZM7.02375 17.0024H3.26564V13.6331H7.02375C7.95272 13.6331 8.70844 14.3888 8.70844 15.3178C8.70844 16.2467 7.95272 17.0024 7.02375 17.0024Z" fill="#CEE5AD"/>
<path d="M7.02375 6.22055H2.87691C2.66217 6.22055 2.48813 6.39459 2.48813 6.60933V10.7562C2.48813 10.9709 2.66213 11.145 2.87691 11.145H7.02375C8.38139 11.145 9.48595 10.0404 9.48595 8.68275C9.48595 7.32511 8.38139 6.22055 7.02375 6.22055ZM7.02375 10.3674H3.26564V6.99806H7.02375C7.95272 6.99806 8.70844 7.75383 8.70844 8.68275C8.70844 9.61163 7.95272 10.3674 7.02375 10.3674Z" fill="#CEE5AD"/>
<path d="M11.9741 8.68275C11.9741 5.95313 9.75338 3.73242 7.02375 3.73242H1.63284C0.732516 3.73242 0 4.46489 0 5.36527V8.26809C0 8.48278 0.174 8.65688 0.388781 8.65688C0.603516 8.65688 0.777563 8.48283 0.777563 8.26809V5.36527C0.777563 4.89366 1.16123 4.50998 1.63284 4.50998H7.02375C9.32466 4.50998 11.1965 6.38189 11.1965 8.68275C11.1965 9.84173 10.7307 10.9195 9.88472 11.7174C9.72445 11.8687 9.72445 12.1318 9.88472 12.283C10.7307 13.081 11.1965 14.1588 11.1965 15.3178C11.1965 17.6187 9.32461 19.4905 7.02375 19.4905H1.63284C1.16123 19.4905 0.777563 19.1069 0.777563 18.6353V9.92681C0.777563 9.71213 0.603563 9.53803 0.388781 9.53803C0.174047 9.53803 0 9.71208 0 9.92681V18.6353C0 19.5356 0.732516 20.2681 1.63284 20.2681H7.02375C9.75338 20.2681 11.9741 18.0474 11.9741 15.3178C11.9741 14.0943 11.512 12.906 10.6948 12.0003C11.512 11.0945 11.9741 9.90619 11.9741 8.68275Z" fill="#CEE5AD"/>
<path d="M21.1231 3.73242H14.9028C14.0025 3.73242 13.2699 4.46494 13.2699 5.36527C13.2699 6.26559 14.0024 6.99811 14.9028 6.99811H17.8056C18.0203 6.99811 18.1944 6.82406 18.1944 6.60933C18.1944 6.39464 18.0204 6.22055 17.8056 6.22055H14.9028C14.4312 6.22055 14.0475 5.83687 14.0475 5.36527C14.0475 4.89366 14.4312 4.50998 14.9028 4.50998H21.1231C21.5947 4.50998 21.9784 4.89366 21.9784 5.36527C21.9784 5.83687 21.5947 6.22055 21.1231 6.22055H19.4644C19.2496 6.22055 19.0756 6.39459 19.0756 6.60933C19.0756 6.82402 19.2496 6.99811 19.4644 6.99811H21.1231C22.0235 6.99811 22.756 6.26564 22.756 5.36527C22.7559 4.46489 22.0234 3.73242 21.1231 3.73242Z" fill="#CEE5AD"/>
<path d="M21.1938 12.2477C20.6498 11.1055 19.4826 10.3674 18.2203 10.3674C16.958 10.3674 15.7908 11.1055 15.2468 12.2477C15.126 12.5015 15.3175 12.8037 15.5978 12.8037H20.8429C21.1231 12.8037 21.3147 12.5015 21.1938 12.2477ZM16.3111 12.0262C16.7834 11.4772 17.4806 11.145 18.2203 11.145C18.96 11.145 19.6573 11.4772 20.1295 12.0262H16.3111Z" fill="#CEE5AD"/>
<path d="M24 13.659C24 10.4721 21.4072 7.87931 18.2203 7.87931C15.0334 7.87931 12.4406 10.4721 12.4406 13.659V14.4884C12.4406 17.6753 15.0334 20.268 18.2203 20.268C20.0554 20.268 21.7405 19.4257 22.8436 17.9571C23.3843 17.2373 23.2386 16.2117 22.5187 15.6709C21.7988 15.1302 20.7733 15.276 20.2325 15.9958C19.7521 16.6355 19.0186 17.0024 18.2203 17.0024C17.133 17.0024 16.1777 16.2926 15.8381 15.2918H22.3672C23.2675 15.2918 24 14.5593 24 13.659ZM14.9622 14.9583C15.1933 16.5669 16.594 17.7799 18.2203 17.7799C19.2655 17.7799 20.2256 17.2998 20.8543 16.4628C21.1375 16.0857 21.6749 16.0094 22.0518 16.2926C22.4289 16.5758 22.5053 17.1131 22.222 17.4902C21.267 18.7615 19.8085 19.4905 18.2203 19.4905C15.4621 19.4905 13.2181 17.2466 13.2181 14.4884V13.659C13.2181 10.9008 15.4621 8.65683 18.2203 8.65683C20.9785 8.65683 23.2225 10.9008 23.2225 13.659C23.2225 14.1306 22.8388 14.5143 22.3672 14.5143H15.347C15.114 14.5143 14.929 14.7275 14.9622 14.9583Z" fill="#CEE5AD"/>
</svg>
