<svg width="24" height="24" viewBox="0 0 24 24" fill="none" xmlns="http://www.w3.org/2000/svg">
<path d="M9 18.9999C4 20.4999 4 16.4999 2 15.9999M3.5 8.54994C3.49252 7.1434 4.03013 5.78864 5 4.76994C4.54414 3.54844 4.57638 2.19829 5.09 0.999938C5.09 0.999938 6.27 0.649938 9 2.47994C11.292 1.85876 13.708 1.85876 16 2.47994C18.73 0.649938 19.91 0.999938 19.91 0.999938C20.4236 2.19829 20.4559 3.54844 20 4.76994C20.9627 5.78114 21.4997 7.12376 21.5 8.51994C21.5 13.9799 18.2 15.1699 15.06 15.5199C15.3929 15.8634 15.6489 16.2737 15.811 16.7237C15.9731 17.1737 16.0375 17.6531 16 18.1299V21.9999H11M9 21.9999V18.1299C8.96681 17.658 9.03335 17.1844 9.19531 16.7399C9.35726 16.2953 9.611 15.8899 9.94 15.5499C7.53649 15.2514 5.03924 14.4842 4 11.7099" stroke="#CEE5AD" stroke-linecap="round" stroke-linejoin="round"/>
</svg>
