<svg width="24" height="24" viewBox="0 0 24 24" fill="none" xmlns="http://www.w3.org/2000/svg">
<path d="M12.0278 4.11897C7.6976 4.11897 4.17467 7.64186 4.17467 11.9722C4.17467 13.3527 4.53801 14.7106 5.22554 15.899C5.34107 16.0987 5.59662 16.1669 5.79632 16.0515C5.99597 15.936 6.06426 15.6805 5.94878 15.4807C5.33475 14.4193 5.01015 13.206 5.01015 11.9722C5.01015 8.10257 8.15826 4.95446 12.0278 4.95446C15.8974 4.95446 19.0455 8.10257 19.0455 11.9722C19.0455 15.8417 15.8974 18.9898 12.0278 18.9898C10.0808 18.9898 8.27096 18.211 6.93167 16.7968C6.77304 16.6293 6.50864 16.6221 6.3411 16.7808C6.17362 16.9394 6.16639 17.2038 6.32507 17.3713C7.82381 18.9538 9.84907 19.8253 12.0278 19.8253C16.3581 19.8253 19.881 16.3024 19.881 11.9721C19.881 7.64181 16.3581 4.11897 12.0278 4.11897Z" fill="#CEE5AD"/>
<path d="M12.0278 6.9038C9.23311 6.9038 6.95949 9.17742 6.95949 11.9722C6.95949 14.7669 9.23311 17.0405 12.0278 17.0405C14.8226 17.0405 17.0962 14.7669 17.0962 11.9722C17.0962 9.17742 14.8225 6.9038 12.0278 6.9038ZM12.0278 16.205C9.69377 16.205 7.79492 14.3062 7.79492 11.9721C7.79492 9.63803 9.69377 7.73918 12.0278 7.73918C14.3619 7.73918 16.2608 9.63803 16.2608 11.9721C16.2608 14.3062 14.3619 16.205 12.0278 16.205Z" fill="#CEE5AD"/>
<path d="M19.1569 3.00503C18.1435 3.00503 17.319 3.82954 17.319 4.84303C17.319 5.85652 18.1435 6.68097 19.1569 6.68097C20.1704 6.68097 20.9949 5.85646 20.9949 4.84303C20.9949 3.82959 20.1704 3.00503 19.1569 3.00503ZM19.1569 5.84554C18.6041 5.84554 18.1544 5.3958 18.1544 4.84303C18.1544 4.29025 18.6041 3.84051 19.1569 3.84051C19.7097 3.84051 20.1594 4.29025 20.1594 4.84303C20.1594 5.3958 19.7097 5.84554 19.1569 5.84554Z" fill="#CEE5AD"/>
<path d="M19.0177 1H4.98228C2.78297 1 1 2.78297 1 4.98228V19.0177C1 21.217 2.78297 23 4.98228 23H19.0177C21.217 23 23 21.217 23 19.0177V4.98228C22.9999 2.78291 21.217 1 19.0177 1ZM22.1645 19.0177C22.1645 20.7556 20.7556 22.1645 19.0177 22.1645H4.98228C3.24434 22.1645 1.83544 20.7556 1.83544 19.0177V4.98228C1.83544 3.24434 3.24434 1.83544 4.98228 1.83544H19.0177C20.7557 1.83544 22.1646 3.24434 22.1646 4.98228L22.1645 19.0177Z" fill="#CEE5AD"/>
</svg>
