<svg width="24" height="24" viewBox="0 0 24 24" fill="none" xmlns="http://www.w3.org/2000/svg">
<path d="M6.26864 11.0448C6.51591 11.0448 6.71642 10.8443 6.71642 10.597V8.65671C6.71642 8.40944 6.51596 8.20893 6.26864 8.20893H2.44778C2.20051 8.20893 2 8.40939 2 8.65671V21.5522C2 21.7994 2.20046 21.9999 2.44778 21.9999H6.26864C6.51591 21.9999 6.71642 21.7995 6.71642 21.5522V12.5671C6.71642 12.3198 6.51596 12.1193 6.26864 12.1193C6.02133 12.1193 5.82087 12.3198 5.82087 12.5671V21.1044H2.89555V9.10448H5.82092V10.597C5.82092 10.8443 6.02138 11.0448 6.26864 11.0448Z" fill="#CEE5AD"/>
<path d="M20.4925 9.43553C19.581 8.65604 18.4005 8.20899 17.2537 8.20899C15.3608 8.20899 14.1617 8.83834 13.403 9.61375V8.65676C13.403 8.4095 13.2026 8.20899 12.9552 8.20899H9.13431C8.88705 8.20899 8.68653 8.40944 8.68653 8.65676V21.5522C8.68653 21.7995 8.88699 22 9.13431 22H12.9552C13.2025 22 13.403 21.7995 13.403 21.5522V15.3432C13.403 14.1448 14.4101 13.403 15.3432 13.403C16.4675 13.403 17.2835 14.219 17.2835 15.3432V21.5522C17.2835 21.7994 17.4839 21.9999 17.7313 21.9999H21.5522C21.7995 21.9999 21.9999 21.7995 21.9999 21.5522V12.4776C21.9999 11.3473 21.4645 10.267 20.4925 9.43553ZM21.1044 21.1044H18.179V15.3432C18.179 13.7265 16.9599 12.5075 15.3432 12.5075C13.9794 12.5075 12.5075 13.5917 12.5075 15.3432V21.1044H9.58209V9.10448H12.5075V11.0448C12.5075 11.249 12.6512 11.4316 12.8496 11.4798C13.054 11.5294 13.2713 11.4255 13.3606 11.2349C14.0236 9.82125 15.3335 9.10448 17.2538 9.10448C19.0715 9.10448 21.1045 10.5471 21.1045 12.4776L21.1044 21.1044Z" fill="#CEE5AD"/>
<path d="M4.35824 2C3.05792 2 2.00006 3.05792 2.00006 4.35818C2.00006 5.65845 3.05797 6.71636 4.35824 6.71636C5.6585 6.71636 6.71642 5.65845 6.71642 4.35818C6.71642 3.05792 5.6585 2 4.35824 2ZM4.35824 5.82092C3.55172 5.82092 2.89555 5.16476 2.89555 4.35824C2.89555 3.55172 3.55172 2.89555 4.35824 2.89555C5.16476 2.89555 5.82092 3.55172 5.82092 4.35824C5.82092 5.16476 5.1647 5.82092 4.35824 5.82092Z" fill="#CEE5AD"/>
</svg>
